<?xml version="1.0" encoding="UTF-8"?>
<svg xmlns="http://www.w3.org/2000/svg" width="1600" height="1000" viewBox="0 0 1600 1000">
<rect width="100%" height="100%" fill="#ffffff"/>
<defs>
<marker id="arrow0" markerWidth="8" markerHeight="8" refX="7" refY="4" orient="auto" markerUnits="strokeWidth"><path d="M0,0 L8,4 L0,8 Z" fill="#087e8b"/></marker>
<marker id="arrow1" markerWidth="8" markerHeight="8" refX="7" refY="4" orient="auto" markerUnits="strokeWidth"><path d="M0,0 L8,4 L0,8 Z" fill="#1d252c"/></marker>
<marker id="arrow2" markerWidth="8" markerHeight="8" refX="7" refY="4" orient="auto" markerUnits="strokeWidth"><path d="M0,0 L8,4 L0,8 Z" fill="#3d8b66"/></marker>
<marker id="arrow3" markerWidth="8" markerHeight="8" refX="7" refY="4" orient="auto" markerUnits="strokeWidth"><path d="M0,0 L8,4 L0,8 Z" fill="#4c78a8"/></marker>
<marker id="arrow4" markerWidth="8" markerHeight="8" refX="7" refY="4" orient="auto" markerUnits="strokeWidth"><path d="M0,0 L8,4 L0,8 Z" fill="#637078"/></marker>
<marker id="arrow5" markerWidth="8" markerHeight="8" refX="7" refY="4" orient="auto" markerUnits="strokeWidth"><path d="M0,0 L8,4 L0,8 Z" fill="#aab3af"/></marker>
<marker id="arrow6" markerWidth="8" markerHeight="8" refX="7" refY="4" orient="auto" markerUnits="strokeWidth"><path d="M0,0 L8,4 L0,8 Z" fill="#d99a22"/></marker>
</defs>
<rect x="45" y="95" width="430" height="785" rx="34.4" fill="#f6f7f5" stroke="#637078" stroke-width="1.5"/>
<rect x="525" y="95" width="1030" height="785" rx="62.8" fill="#ffffff" stroke="#3d8b66" stroke-width="1.8"/>
<rect x="575" y="445" width="905" height="240" rx="19.2" fill="#f6f7f5" stroke="#637078" stroke-width="1.4"/><text x="1027.5" y="480" text-anchor="middle" fill="#1d252c" font-family="Arial, Helvetica, sans-serif" font-weight="700"><tspan x="1027.5" y="480"><tspan font-size="20px">Row Engine Timing Model: one symmetric tile critical path</tspan></tspan></text>
<path d="M 260 237 L 260 256 L 260 256 L 260 275" fill="none" stroke="#087e8b" stroke-width="2" stroke-linejoin="round" marker-end="url(#arrow0)"/>
<path d="M 260 457 L 260 483.5 L 360 483.5 L 360 510" fill="none" stroke="#3d8b66" stroke-width="2" stroke-linejoin="round" marker-end="url(#arrow2)"/>
<path d="M 260 457 L 260 483.5 L 160 483.5 L 160 510" fill="none" stroke="#aab3af" stroke-width="2" stroke-linejoin="round" marker-end="url(#arrow5)"/>
<path d="M 360 588 L 360 614 L 260 614 L 260 640" fill="none" stroke="#d99a22" stroke-width="2" stroke-linejoin="round" marker-end="url(#arrow6)"/>
<path d="M 260 735 L 260 760 L 260 760 L 260 785" fill="none" stroke="#1d252c" stroke-width="2" stroke-linejoin="round" marker-end="url(#arrow1)"/>
<path d="M 780 200 L 802.5 200 L 802.5 200 L 825 200" fill="none" stroke="#3d8b66" stroke-width="2" stroke-linejoin="round" marker-end="url(#arrow2)"/>
<path d="M 825 200 L 915 200 L 915 342.5 L 1005 342.5" fill="none" stroke="#087e8b" stroke-width="2" stroke-linejoin="round" marker-end="url(#arrow0)"/>
<path d="M 1005 342.5 L 1027.5 342.5 L 1027.5 342.5 L 1050 342.5" fill="none" stroke="#d99a22" stroke-width="2" stroke-linejoin="round" marker-end="url(#arrow6)"/>
<path d="M 800 560 L 822.5 560 L 822.5 560 L 845 560" fill="none" stroke="#637078" stroke-width="2" stroke-linejoin="round" marker-end="url(#arrow4)"/>
<path d="M 1050 560 L 1072.5 560 L 1072.5 560 L 1095 560" fill="none" stroke="#637078" stroke-width="2" stroke-linejoin="round" marker-end="url(#arrow4)"/>
<path d="M 1265 290 L 1265 267.5 L 1330 267.5 L 1330 245" fill="none" stroke="#4c78a8" stroke-width="2" stroke-linejoin="round" stroke-dasharray="8 6" marker-end="url(#arrow3)"/>
<path d="M 259.76 340 L 259.76 378" fill="none" stroke="#087e8b" stroke-width="2" stroke-linejoin="round" marker-end="url(#arrow0)"/>
<text x="53" y="53.75" text-anchor="start" fill="#1d252c" font-family="Arial, Helvetica, sans-serif" font-weight="700"><tspan x="53" y="53.75"><tspan font-size="25px">Compute Tile and SFU: Functional Data Path + Event-Driven Timing Model</tspan></tspan></text>
<text x="260" y="133.4" text-anchor="middle" fill="#1d252c" font-family="Arial, Helvetica, sans-serif" font-weight="700"><tspan x="260" y="133.4"><tspan font-size="24px">Compute Tile</tspan></tspan></text>
<rect x="105" y="165" width="310" height="72" rx="5.76" fill="#e4ecf5" stroke="#4c78a8" stroke-width="1"/><text x="260" y="201.625" text-anchor="middle" fill="#1d252c" font-family="Arial, Helvetica, sans-serif" font-weight="700"><tspan x="260" y="201.625"><tspan font-size="25px">Vanadis RISC-V Core</tspan></tspan><tspan x="260" y="221.175"><tspan font-size="13px">guest descriptor construction + rdcycle</tspan></tspan></text>
<rect x="105" y="275" width="310" height="65" rx="5.2" fill="#eef1f5" stroke="#637078" stroke-width="1"/><text x="260" y="307.775" text-anchor="middle" fill="#1d252c" font-family="Arial, Helvetica, sans-serif" font-weight="700"><tspan x="260" y="307.775"><tspan font-size="24px">L1 I/D + private L2</tspan></tspan><tspan x="260" y="327.05"><tspan font-size="13px">L2 MemNIC is a local NoC endpoint</tspan></tspan></text>
<rect x="105" y="385" width="310" height="72" rx="5.76" fill="#ddeff0" stroke="#087e8b" stroke-width="1"/><text x="260" y="429.4" text-anchor="middle" fill="#1d252c" font-family="Arial, Helvetica, sans-serif" font-weight="700"><tspan x="260" y="429.4"><tspan font-size="24px">RoCCAnalog</tspan></tspan></text>
<rect x="75" y="510" width="170" height="78" rx="6.24" fill="#f1f3f1" stroke="#aab3af" stroke-width="1"/><text x="160" y="557.4" text-anchor="middle" fill="#1d252c" font-family="Arial, Helvetica, sans-serif" font-weight="700"><tspan x="160" y="557.4"><tspan font-size="24px">MVM Array</tspan></tspan></text>
<rect x="275" y="510" width="170" height="78" rx="6.24" fill="#e2f0e9" stroke="#3d8b66" stroke-width="1"/><text x="360" y="557.75" text-anchor="middle" fill="#1d252c" font-family="Arial, Helvetica, sans-serif" font-weight="700"><tspan x="360" y="557.75"><tspan font-size="25px">SFU</tspan></tspan></text>
<rect x="105" y="640" width="310" height="95" rx="7.6" fill="#f7ecd1" stroke="#d99a22" stroke-width="1"/><text x="260" y="683.4" text-anchor="middle" fill="#1d252c" font-family="Arial, Helvetica, sans-serif" font-weight="700"><tspan x="260" y="683.4"><tspan font-size="24px">Per-core GlobalMemory</tspan></tspan><tspan x="260" y="699.75"><tspan font-size="10px">local GM + DMA engine + SimpleNetwork NIC</tspan></tspan><tspan x="260" y="712.25"><tspan font-size="10px">send/retry/completion queues</tspan></tspan></text>
<rect x="105" y="785" width="310" height="65" rx="5.2" fill="#1d252c" stroke="#1d252c" stroke-width="1"/><text x="260" y="819.65" text-anchor="middle" fill="#ffffff" font-family="Arial, Helvetica, sans-serif" font-weight="700"><tspan x="260" y="819.65"><tspan font-size="24px">Merlin Mesh NoC</tspan></tspan><tspan x="260" y="836"><tspan font-size="10px">L2 endpoint + GlobalMemory endpoint</tspan></tspan></text>
<text x="1045" y="133.05" text-anchor="middle" fill="#3d8b66" font-family="Arial, Helvetica, sans-serif" font-weight="700"><tspan x="1045" y="133.05"><tspan font-size="23px">SFU Internal Structure</tspan></tspan></text>
<rect x="575" y="160" width="205" height="80" rx="6.4" fill="#e2f0e9" stroke="#3d8b66" stroke-width="1"/><text x="677.5" y="194.775" text-anchor="middle" fill="#1d252c" font-family="Arial, Helvetica, sans-serif" font-weight="700"><tspan x="677.5" y="194.775"><tspan font-size="19px">Job Queue / Tag</tspan></tspan><tspan x="677.5" y="218.525"><tspan font-size="19px">Table</tspan></tspan></text>
<rect x="825" y="155" width="310" height="90" rx="7.2" fill="#ddeff0" stroke="#087e8b" stroke-width="1"/><text x="980" y="193.95" text-anchor="middle" fill="#1d252c" font-family="Arial, Helvetica, sans-serif" font-weight="700"><tspan x="980" y="193.95"><tspan font-size="22px">Descriptor + Params</tspan></tspan><tspan x="980" y="221.45"><tspan font-size="22px">Reader</tspan></tspan></text>
<rect x="1180" y="155" width="300" height="90" rx="7.2" fill="#e4ecf5" stroke="#4c78a8" stroke-width="1"/><text x="1330" y="202.15" text-anchor="middle" fill="#1d252c" font-family="Arial, Helvetica, sans-serif" font-weight="700"><tspan x="1330" y="202.15"><tspan font-size="24px">Completion Table</tspan></tspan><tspan x="1330" y="218.5"><tspan font-size="10px">tensorDmaComplete + readyTick gate</tspan></tspan></text>
<rect x="575" y="290" width="430" height="105" rx="8.4" fill="#ddeff0" stroke="#087e8b" stroke-width="1"/><text x="790" y="328.875" text-anchor="middle" fill="#1d252c" font-family="Arial, Helvetica, sans-serif" font-weight="700"><tspan x="790" y="328.875"><tspan font-size="20px">Tensor Job Controller (coordinator</tspan></tspan><tspan x="790" y="353.875"><tspan font-size="20px">SFU)</tspan></tspan><tspan x="790" y="372.05"><tspan font-size="13px">TensorRowDispatch messages+TensorRowComplete messages</tspan></tspan></text>
<rect x="1050" y="290" width="430" height="105" rx="8.4" fill="#f7ecd1" stroke="#d99a22" stroke-width="1"/><text x="1265" y="333.75" text-anchor="middle" fill="#1d252c" font-family="Arial, Helvetica, sans-serif" font-weight="700"><tspan x="1265" y="333.75"><tspan font-size="25px">Tensor Worker (all 16 SFUs)</tspan></tspan><tspan x="1265" y="354.275"><tspan font-size="14px">4 × 16-row input DMA → functional Softmax → output</tspan></tspan><tspan x="1265" y="371.775"><tspan font-size="14px">DMA</tspan></tspan></text>
<rect x="615" y="515" width="185" height="90" rx="7.2" fill="#ddeff0" stroke="#087e8b" stroke-width="1"/><text x="707.5" y="552.75" text-anchor="middle" fill="#1d252c" font-family="Arial, Helvetica, sans-serif" font-weight="700"><tspan x="707.5" y="552.75"><tspan font-size="15px">MAX</tspan></tspan><tspan x="707.5" y="566.625"><tspan font-size="10px">16 vector lanes</tspan></tspan><tspan x="707.5" y="579.125"><tspan font-size="10px">256 cycles / row</tspan></tspan></text>
<rect x="845" y="515" width="205" height="90" rx="7.2" fill="#f5e3e1" stroke="#c6423e" stroke-width="1"/><text x="947.5" y="552.75" text-anchor="middle" fill="#1d252c" font-family="Arial, Helvetica, sans-serif" font-weight="700"><tspan x="947.5" y="552.75"><tspan font-size="15px">EXP + SUM</tspan></tspan><tspan x="947.5" y="566.625"><tspan font-size="10px">4 EXP lanes · latency 8</tspan></tspan><tspan x="947.5" y="579.125"><tspan font-size="10px">1024 cycles / row</tspan></tspan></text>
<rect x="1095" y="515" width="185" height="90" rx="7.2" fill="#e2f0e9" stroke="#3d8b66" stroke-width="1"/><text x="1187.5" y="552.75" text-anchor="middle" fill="#1d252c" font-family="Arial, Helvetica, sans-serif" font-weight="700"><tspan x="1187.5" y="552.75"><tspan font-size="15px">NORMALIZE</tspan></tspan><tspan x="1187.5" y="566.625"><tspan font-size="10px">16 vector lanes</tspan></tspan><tspan x="1187.5" y="579.125"><tspan font-size="10px">256 cycles / row</tspan></tspan></text>
<rect x="1320" y="505" width="125" height="110" rx="8.8" fill="#e4ecf5" stroke="#4c78a8" stroke-width="1"/><text x="1382.5" y="530.875" text-anchor="middle" fill="#1d252c" font-family="Arial, Helvetica, sans-serif" font-weight="700"><tspan x="1382.5" y="530.875"><tspan font-size="15px">4 row</tspan></tspan><tspan x="1382.5" y="549.625"><tspan font-size="15px">contexts</tspan></tspan><tspan x="1382.5" y="563.5"><tspan font-size="10px">64-KiB modeled</tspan></tspan><tspan x="1382.5" y="576"><tspan font-size="10px">scratchpad</tspan></tspan><tspan x="1382.5" y="588.5"><tspan font-size="10px">row interval =</tspan></tspan><tspan x="1382.5" y="601"><tspan font-size="10px">max(256,1024,256)</tspan></tspan></text>
<rect x="615" y="625" width="830" height="42" rx="3.36" fill="#e8efed" stroke="#087e8b" stroke-width="1"/><text x="1030" y="641.05" text-anchor="middle" fill="#1d252c" font-family="Arial, Helvetica, sans-serif" font-weight="700"><tspan x="1030" y="641.05"><tspan font-size="18px">Softmax computation is executed in a pipelined and parallel manner to shorten the</tspan></tspan><tspan x="1030" y="663.55"><tspan font-size="18px">cycle count.</tspan></tspan></text>
<rect x="575" y="735" width="905" height="100" rx="8" fill="#fff3d6" stroke="#d99a22" stroke-width="1"/><text x="583" y="778.95" text-anchor="start" fill="#1d252c" font-family="Arial, Helvetica, sans-serif" font-weight="400"><tspan x="583" y="778.95"><tspan font-size="22px">Model boundary: the functional callback uses host C++ max/exp/normalize</tspan></tspan><tspan x="583" y="806.45"><tspan font-size="22px">and consumes configurable simulated compute time.</tspan></tspan></text>
</svg>